<svg width="568" height="568" viewBox="0 0 568 568" fill="none" xmlns="http://www.w3.org/2000/svg">
<mask id="path-1-inside-1_751_2" fill="white">
<path d="M0 20C0 8.95431 8.95431 0 20 0H280C291.046 0 300 8.95431 300 20V180C300 191.046 291.046 200 280 200H20C8.9543 200 0 191.046 0 180V20Z"/>
</mask>
<path d="M-70 20C-70 -29.7056 -29.7056 -70 20 -70H210C259.706 -70 300 -29.7056 300 20V70C300 70 291.046 70 280 70H70L-70 20ZM300 200H0H300ZM20 200C-29.7056 200 -70 159.706 -70 110V20C-70 -29.7056 -29.7056 -70 20 -70L70 70V180C70 191.046 70 200 70 200H20ZM300 0V200V0Z" fill="#A43EA4" mask="url(#path-1-inside-1_751_2)"/>
<mask id="path-3-inside-2_751_2" fill="white">
<path d="M368 20C368 8.9543 376.954 0 388 0H548C559.046 0 568 8.95431 568 20V280C568 291.046 559.046 300 548 300H388C376.954 300 368 291.046 368 280V20Z"/>
</mask>
<path d="M368 20C368 -29.7056 408.294 -70 458 -70H548C597.706 -70 638 -29.7056 638 20L498 70H388C376.954 70 368 70 368 70V20ZM568 300H368H568ZM368 300V0V300ZM548 -70C597.706 -70 638 -29.7056 638 20V210C638 259.706 597.706 300 548 300H498C498 300 498 291.046 498 280V70L548 -70Z" fill="#A43EA4" mask="url(#path-3-inside-2_751_2)"/>
<mask id="path-5-inside-3_751_2" fill="white">
<path d="M268 388C268 376.954 276.954 368 288 368H548C559.046 368 568 376.954 568 388V548C568 559.046 559.046 568 548 568H288C276.954 568 268 559.046 268 548V388Z"/>
</mask>
<path d="M268 368H568H268ZM638 548C638 597.706 597.706 638 548 638H358C308.294 638 268 597.706 268 548V498C268 498 276.954 498 288 498H498L638 548ZM268 568V368V568ZM548 368C597.706 368 638 408.294 638 458V548C638 597.706 597.706 638 548 638L498 498V388C498 376.954 498 368 498 368H548Z" fill="#A43EA4" mask="url(#path-5-inside-3_751_2)"/>
<mask id="path-7-inside-4_751_2" fill="white">
<path d="M0 288C0 276.954 8.95431 268 20 268H180C191.046 268 200 276.954 200 288V548C200 559.046 191.046 568 180 568H20C8.95431 568 0 559.046 0 548V288Z"/>
</mask>
<path d="M0 268H200H0ZM200 548C200 597.706 159.706 638 110 638H20C-29.7056 638 -70 597.706 -70 548L70 498H180C191.046 498 200 498 200 498V548ZM20 638C-29.7056 638 -70 597.706 -70 548V358C-70 308.294 -29.7056 268 20 268H70C70 268 70 276.954 70 288V498L20 638ZM200 268V568V268Z" fill="#A43EA4" mask="url(#path-7-inside-4_751_2)"/>
<rect x="127" y="216" width="60" height="60" fill="#A43EA4"/>
<rect x="127" y="299" width="60" height="60" fill="#A43EA4"/>
<rect x="127" y="382" width="60" height="60" fill="#A43EA4"/>
<rect x="212" y="133" width="60" height="60" fill="#A43EA4"/>
<rect x="212" y="216" width="60" height="60" fill="#A43EA4"/>
<rect x="212" y="299" width="60" height="60" fill="#A43EA4"/>
<rect x="212" y="382" width="60" height="60" fill="#A43EA4"/>
<rect x="297" y="133" width="60" height="60" fill="#A43EA4"/>
<rect x="297" y="216" width="60" height="60" fill="#A43EA4"/>
<rect x="297" y="299" width="60" height="60" fill="#A43EA4"/>
<rect x="297" y="382" width="60" height="60" fill="#A43EA4"/>
<rect x="382" y="133" width="60" height="60" fill="#A43EA4"/>
<rect x="382" y="216" width="60" height="60" fill="#A43EA4"/>
<rect x="382" y="299" width="60" height="60" fill="#A43EA4"/>
</svg>
